<svg width="26" height="30" viewBox="0 0 26 30" fill="none" xmlns="http://www.w3.org/2000/svg">
<g filter="url(#filter0_dd_379_27537)">
<path fill-rule="evenodd" clip-rule="evenodd" d="M9.58789 7.95706C10.1018 7.96885 10.5315 8.03329 10.877 8.15039C11.2676 8.27409 11.6582 8.53776 12.0488 8.94141L17.3418 14.3125C17.6152 14.5924 17.8236 14.8594 17.9668 15.1133C18.11 15.3672 18.2044 15.6504 18.25 15.9629C18.3021 16.2689 18.3281 16.64 18.3281 17.0762V20.8652H17.9863V22.7793H18.3281V24.5859C18.3281 25.6406 18.0612 26.4382 17.5273 26.9785C16.9935 27.5189 16.2025 27.7891 15.1543 27.7891H6.01367C4.96549 27.7891 4.17448 27.5189 3.64062 26.9785C3.10677 26.4447 2.83984 25.6471 2.83984 24.5859V11.168C2.83984 10.1133 3.10677 9.31576 3.64062 8.77539C4.17448 8.22852 4.96549 7.95508 6.01367 7.95508H7.67383V6.1582C7.67383 5.10352 7.94076 4.30599 8.47461 3.76562C9.00846 3.21875 9.79948 2.94531 10.8477 2.94531H14.5195C15.0859 2.94531 15.5905 3.02669 16.0332 3.18945C16.4824 3.3457 16.8893 3.61263 17.2539 3.99023L22.1172 8.94141C22.5013 9.33854 22.7715 9.76172 22.9277 10.2109C23.084 10.6536 23.1621 11.1973 23.1621 11.8418V19.5762C23.1621 20.6309 22.8919 21.4284 22.3516 21.9688C21.8177 22.5091 21.0299 22.7793 19.9883 22.7793H18.3281V20.8652H19.8125C20.2878 20.8652 20.6426 20.7448 20.877 20.5039C21.1178 20.2565 21.2383 19.9082 21.2383 19.459V11.373H16.9414C16.3359 11.373 15.877 11.2201 15.5645 10.9141C15.252 10.6016 15.0957 10.1426 15.0957 9.53711V4.86914H11.0039C10.5352 4.86914 10.1803 4.98958 9.93945 5.23047C9.70508 5.47135 9.58789 5.81966 9.58789 6.27539V7.95706ZM16.6973 5.66992V9.29297C16.6973 9.46224 16.7331 9.58594 16.8047 9.66406C16.8828 9.73568 17.0033 9.77148 17.166 9.77148H20.7402L16.6973 5.66992ZM4.76367 11.2754V24.4688C4.76367 24.9245 4.88086 25.2728 5.11523 25.5137C5.34961 25.7546 5.70117 25.875 6.16992 25.875H14.9883C15.457 25.875 15.8086 25.7546 16.043 25.5137C16.2839 25.2728 16.4043 24.9245 16.4043 24.4688V17.3008H11.248C10.5579 17.3008 10.0404 17.1315 9.69531 16.793C9.35026 16.4479 9.17773 15.9238 9.17773 15.2207V9.87891H6.17969C5.70443 9.87891 5.34961 9.99935 5.11523 10.2402C4.88086 10.4811 4.76367 10.8262 4.76367 11.2754ZM11.0039 15.4746C11.0951 15.5658 11.2415 15.6113 11.4434 15.6113H16.1406L10.8672 10.25V15.0352C10.8672 15.237 10.9128 15.3835 11.0039 15.4746Z" fill="url(#paint0_radial_379_27537)"/>
<path d="M17.9863 20.8652V22.7793H18.3281V20.8652H17.9863Z" fill="url(#paint1_radial_379_27537)"/>
</g>
<defs>
<filter id="filter0_dd_379_27537" x="0.839844" y="0.945312" width="24.3223" height="28.8438" filterUnits="userSpaceOnUse" color-interpolation-filters="sRGB">
<feFlood flood-opacity="0" result="BackgroundImageFix"/>
<feColorMatrix in="SourceAlpha" type="matrix" values="0 0 0 0 0 0 0 0 0 0 0 0 0 0 0 0 0 0 127 0" result="hardAlpha"/>
<feOffset/>
<feGaussianBlur stdDeviation="0.5"/>
<feComposite in2="hardAlpha" operator="out"/>
<feColorMatrix type="matrix" values="0 0 0 0 0.792157 0 0 0 0 1 0 0 0 0 0.980392 0 0 0 0.6 0"/>
<feBlend mode="normal" in2="BackgroundImageFix" result="effect1_dropShadow_379_27537"/>
<feColorMatrix in="SourceAlpha" type="matrix" values="0 0 0 0 0 0 0 0 0 0 0 0 0 0 0 0 0 0 127 0" result="hardAlpha"/>
<feOffset/>
<feGaussianBlur stdDeviation="1"/>
<feComposite in2="hardAlpha" operator="out"/>
<feColorMatrix type="matrix" values="0 0 0 0 0.792157 0 0 0 0 1 0 0 0 0 0.980392 0 0 0 0.45 0"/>
<feBlend mode="normal" in2="effect1_dropShadow_379_27537" result="effect2_dropShadow_379_27537"/>
<feBlend mode="normal" in="SourceGraphic" in2="effect2_dropShadow_379_27537" result="shape"/>
</filter>
<radialGradient id="paint0_radial_379_27537" cx="0" cy="0" r="1" gradientUnits="userSpaceOnUse" gradientTransform="translate(29.8195 0.185403) rotate(140.196) scale(35.5748 11.7959)">
<stop stop-color="#85FFEA"/>
<stop offset="1" stop-color="#72C7AA"/>
</radialGradient>
<radialGradient id="paint1_radial_379_27537" cx="0" cy="0" r="1" gradientUnits="userSpaceOnUse" gradientTransform="translate(29.8195 0.185403) rotate(140.196) scale(35.5748 11.7959)">
<stop stop-color="#85FFEA"/>
<stop offset="1" stop-color="#72C7AA"/>
</radialGradient>
</defs>
</svg>
