<svg width="146" height="23" viewBox="0 0 146 23" fill="none" xmlns="http://www.w3.org/2000/svg">
<g filter="url(#filter0_ddi_306_17039)">
<path d="M8.21859 9.02053C8.17975 7.53199 8.24447 6.85891 8.28331 6.54826C8.37391 5.88813 8.37391 5.74574 9.2282 5.61631C9.37059 5.59042 9.43531 5.47392 9.43531 5.35743C9.43531 5.25388 9.38353 5.15033 9.26704 5.15033H5.78515C5.66865 5.15033 5.61688 5.25388 5.61688 5.35743C5.61688 5.47392 5.6816 5.59042 5.82398 5.61631C6.73005 5.74574 6.79477 5.90107 6.84654 6.54826C6.87243 6.85891 6.91126 7.53199 6.91126 9.04642V14.2369C6.91126 15.6478 6.75593 16.9163 5.75926 17.3434L5.33211 17.5246C5.1509 17.6023 5.06029 17.7576 5.06029 17.887C5.06029 18.0812 5.20268 18.2106 5.358 18.2106C6.26407 18.2106 8.38686 16.3208 8.34802 14.7158L8.21859 9.02053ZM13.4865 5.88813C13.603 5.83635 13.9525 5.81046 14.1467 5.81046H15.8035C16.6319 5.81046 17.1108 6.36705 17.2143 7.38961C17.2273 7.55788 17.3567 7.63554 17.4732 7.63554C17.5897 7.63554 17.7062 7.55788 17.7062 7.4155V5.59042C17.7062 5.27977 17.6285 5.15033 17.3179 5.15033H11.0531C10.9366 5.15033 10.8848 5.25388 10.8848 5.35743C10.8848 5.47392 10.9495 5.59042 11.0919 5.61631C11.998 5.74574 12.0627 5.90107 12.1145 6.54826C12.1404 6.85891 12.1792 7.53199 12.1792 9.04642V10.9362C12.1792 12.4636 12.1404 13.0202 12.1145 13.3308C12.0627 13.978 11.9333 14.1463 11.0272 14.2757C10.8848 14.3016 10.8201 14.4181 10.8201 14.5346C10.8201 14.6381 10.8719 14.7417 10.9884 14.7417H17.5768C17.758 14.7417 17.9392 14.6899 17.9651 14.4699L18.2757 12.3989C18.3016 12.2435 18.211 12.1659 18.0945 12.1659C18.0039 12.1659 17.8874 12.2177 17.8356 12.36C17.512 13.1626 17.0849 14.0557 15.5964 14.0557C14.1208 14.0557 13.6418 13.978 13.5512 13.3179C13.5124 13.0072 13.4865 12.3989 13.4865 10.8974V10.1337C13.8101 10.1078 14.1596 10.0819 14.5479 10.0819C15.8164 10.0819 16.3471 10.0949 16.4765 11.0527C16.4895 11.1951 16.6189 11.2598 16.7354 11.2598C16.839 11.2598 16.9425 11.208 16.9425 11.0915C16.9425 10.8197 16.8649 10.5608 16.8649 9.82305C16.8649 9.14997 16.9425 8.73577 16.9425 8.3604C16.9425 8.2439 16.839 8.19213 16.7354 8.19213C16.6189 8.19213 16.5024 8.25684 16.4765 8.39923C16.2824 9.46062 15.7905 9.46062 14.5091 9.46062C14.1208 9.46062 13.7972 9.43473 13.4865 9.3959V5.88813ZM22.5017 5.88813C22.6182 5.83635 22.9677 5.81046 23.1618 5.81046H24.8186C25.647 5.81046 26.126 6.36705 26.2295 7.38961C26.2425 7.55788 26.3719 7.63554 26.4884 7.63554C26.6049 7.63554 26.7214 7.55788 26.7214 7.4155V5.59042C26.7214 5.27977 26.6437 5.15033 26.3331 5.15033H20.0682C19.9518 5.15033 19.9 5.25388 19.9 5.35743C19.9 5.47392 19.9647 5.59042 20.1071 5.61631C21.0131 5.74574 21.0779 5.90107 21.1296 6.54826C21.1555 6.85891 21.1944 7.53199 21.1944 9.04642V10.9362C21.1944 12.4636 21.1555 13.0202 21.1296 13.3308C21.0779 13.978 20.9484 14.1463 20.0424 14.2757C19.9 14.3016 19.8353 14.4181 19.8353 14.5346C19.8353 14.6381 19.887 14.7417 20.0035 14.7417H26.5919C26.7731 14.7417 26.9544 14.6899 26.9802 14.4699L27.2909 12.3989C27.3168 12.2435 27.2262 12.1659 27.1097 12.1659C27.0191 12.1659 26.9026 12.2177 26.8508 12.36C26.5272 13.1626 26.1001 14.0557 24.6115 14.0557C23.1359 14.0557 22.657 13.978 22.5664 13.3179C22.5276 13.0072 22.5017 12.3989 22.5017 10.8974V10.1337C22.8253 10.1078 23.1748 10.0819 23.5631 10.0819C24.8316 10.0819 25.3623 10.0949 25.4917 11.0527C25.5047 11.1951 25.6341 11.2598 25.7506 11.2598C25.8541 11.2598 25.9577 11.208 25.9577 11.0915C25.9577 10.8197 25.88 10.5608 25.88 9.82305C25.88 9.14997 25.9577 8.73577 25.9577 8.3604C25.9577 8.2439 25.8541 8.19213 25.7506 8.19213C25.6341 8.19213 25.5176 8.25684 25.4917 8.39923C25.2976 9.46062 24.8057 9.46062 23.5242 9.46062C23.1359 9.46062 22.8123 9.43473 22.5017 9.3959V5.88813ZM31.724 5.77163C31.8016 6.06934 31.8146 7.57082 31.8146 9.05936V10.9621C31.8146 12.4895 31.7887 13.1108 31.7498 13.4861C31.6981 14.0039 31.1933 14.1204 30.2872 14.2498C30.1448 14.2757 30.0801 14.4052 30.0801 14.5346C30.0801 14.6511 30.1319 14.7417 30.2484 14.7417H34.7528C34.8693 14.7417 34.9211 14.6511 34.9211 14.5346C34.9211 14.4052 34.8564 14.2757 34.714 14.2498C33.8597 14.1204 33.2643 14.0298 33.1996 13.525C33.1478 13.1108 33.1219 12.4765 33.1219 10.975V9.04642C33.1219 7.55788 33.1348 6.09523 33.1996 5.78458L34.7658 5.82341C35.5942 5.84929 36.0731 6.62592 36.1766 7.64849C36.1896 7.81676 36.319 7.89442 36.4355 7.89442C36.552 7.89442 36.6685 7.81676 36.6685 7.67437V5.55159C36.6685 5.18916 36.5261 5.15033 36.4096 5.15033H28.5268C28.4103 5.15033 28.268 5.18916 28.268 5.55159V7.67437C28.268 7.81676 28.3845 7.89442 28.5009 7.89442C28.6174 7.89442 28.7469 7.81676 28.7598 7.64849C28.8634 6.62592 29.3423 5.84929 30.1707 5.82341L31.724 5.77163ZM39.2626 10.9362C39.2626 12.4636 39.2238 13.0202 39.1979 13.3308C39.1461 13.978 39.0167 14.1463 38.1106 14.2757C37.9682 14.3016 37.9035 14.4181 37.9035 14.5346C37.9035 14.6381 37.9553 14.7417 38.0718 14.7417H41.942C44.6731 14.7417 47.2101 13.1367 47.2101 9.8101C47.2101 6.87186 44.9838 5.15033 41.6184 5.15033H38.1365C38.02 5.15033 37.9682 5.25388 37.9682 5.35743C37.9682 5.47392 38.033 5.59042 38.1753 5.61631C39.0814 5.74574 39.1461 5.90107 39.1979 6.54826C39.2238 6.85891 39.2626 7.58377 39.2626 9.09819V10.9362ZM40.5441 5.92696C40.6606 5.87518 41.01 5.84929 41.2042 5.84929C43.5211 5.84929 45.7475 7.07896 45.7475 9.84893C45.7475 12.5542 44.3107 14.0686 42.175 14.0686C41.3207 14.0686 40.777 13.8486 40.6735 13.4085C40.5699 12.9684 40.5441 12.5024 40.5441 10.9492V5.92696ZM51.8225 9.07231C51.8225 7.58377 51.8484 6.85891 51.8872 6.54826C51.9778 5.88813 51.9778 5.74574 52.8321 5.61631C52.9745 5.59042 53.0392 5.47392 53.0392 5.35743C53.0392 5.25388 52.9874 5.15033 52.8709 5.15033H49.389C49.2725 5.15033 49.2208 5.25388 49.2208 5.35743C49.2208 5.47392 49.2855 5.59042 49.4279 5.61631C50.3339 5.74574 50.3987 5.90107 50.4504 6.54826C50.4763 6.85891 50.5151 7.58377 50.5151 9.09819V10.8974C50.5151 12.4248 50.4763 13.0202 50.4504 13.3308C50.3987 13.978 50.2692 14.1463 49.3631 14.2757C49.2208 14.3016 49.156 14.4181 49.156 14.5346C49.156 14.6381 49.2078 14.7417 49.3243 14.7417H53.0262C53.1427 14.7417 53.1945 14.6381 53.1945 14.5346C53.1945 14.4181 53.1298 14.3016 52.9874 14.2757C52.1331 14.1463 51.9778 13.991 51.8872 13.3308C51.8484 13.0202 51.8225 12.4118 51.8225 10.9103V9.07231ZM57.6775 5.88813C57.794 5.83635 58.1435 5.81046 58.3377 5.81046H59.9945C60.8229 5.81046 61.3018 6.36705 61.4054 7.38961C61.4183 7.55788 61.5477 7.63554 61.6642 7.63554C61.7807 7.63554 61.8972 7.55788 61.8972 7.4155V5.59042C61.8972 5.27977 61.8196 5.15033 61.5089 5.15033H55.2441C55.1276 5.15033 55.0758 5.25388 55.0758 5.35743C55.0758 5.47392 55.1405 5.59042 55.2829 5.61631C56.189 5.74574 56.2537 5.90107 56.3055 6.54826C56.3314 6.85891 56.3702 7.53199 56.3702 9.04642V10.9362C56.3702 12.4636 56.3314 13.0202 56.3055 13.3308C56.2537 13.978 56.1243 14.1463 55.2182 14.2757C55.0758 14.3016 55.0111 14.4181 55.0111 14.5346C55.0111 14.6381 55.0629 14.7417 55.1794 14.7417H61.7678C61.949 14.7417 62.1302 14.6899 62.1561 14.4699L62.4667 12.3989C62.4926 12.2435 62.402 12.1659 62.2855 12.1659C62.1949 12.1659 62.0784 12.2177 62.0267 12.36C61.7031 13.1626 61.2759 14.0557 59.7874 14.0557C58.3118 14.0557 57.8329 13.978 57.7422 13.3179C57.7034 13.0072 57.6775 12.3989 57.6775 10.8974V10.1337C58.0011 10.1078 58.3506 10.0819 58.7389 10.0819C60.0074 10.0819 60.5381 10.0949 60.6676 11.0527C60.6805 11.1951 60.8099 11.2598 60.9264 11.2598C61.03 11.2598 61.1335 11.208 61.1335 11.0915C61.1335 10.8197 61.0559 10.5608 61.0559 9.82305C61.0559 9.14997 61.1335 8.73577 61.1335 8.3604C61.1335 8.2439 61.03 8.19213 60.9264 8.19213C60.8099 8.19213 60.6934 8.25684 60.6676 8.39923C60.4734 9.46062 59.9815 9.46062 58.7001 9.46062C58.3118 9.46062 57.9882 9.43473 57.6775 9.3959V5.88813ZM72.1804 5.15033H70.8342C70.6659 5.15033 70.6012 5.27977 70.6659 5.42215L71.0801 6.36705L68.3102 13.1108C67.9219 14.0686 67.6759 14.1463 67.0028 14.2757C66.8863 14.3016 66.8087 14.4181 66.8087 14.5217C66.8087 14.6381 66.8863 14.7417 67.0546 14.7417H69.9929C70.1482 14.7417 70.2129 14.6381 70.2129 14.5346C70.2129 14.4181 70.1352 14.2887 70.0317 14.2757C69.3457 14.1981 68.9315 14.0816 68.9315 13.7968C68.9315 13.745 68.9444 13.7062 68.9703 13.6415L69.6952 11.8682H73.423L73.8372 12.8778C73.9666 13.2014 74.0443 13.4603 74.0443 13.6544C74.0443 14.0557 73.7336 14.2239 72.9829 14.2757C72.8405 14.2887 72.7758 14.4181 72.7758 14.5346C72.7758 14.6381 72.8276 14.7417 72.9441 14.7417H76.5554C76.6719 14.7417 76.7237 14.6381 76.7237 14.5346C76.7237 14.4181 76.6589 14.3016 76.5166 14.2757C75.7658 14.1722 75.8564 14.0686 74.2514 10.1596L72.1804 5.15033ZM71.5979 7.0919L73.177 11.1563H69.9929L71.5979 7.0919ZM85.7904 14.3922C85.9069 14.3534 85.9587 14.3016 85.9716 14.1333L86.114 12.1788C86.1269 12.0364 86.0363 11.9717 85.9457 11.9717C85.8422 11.9717 85.7386 12.0494 85.6739 12.2047C85.3503 13.0072 84.5996 14.1981 82.8133 14.1981C80.6776 14.1981 79.1114 12.6707 79.1114 9.97837C79.1114 6.75536 81.4672 5.60336 82.9169 5.60336C84.6772 5.60336 85.1173 6.89774 85.2468 7.85559C85.2726 8.01091 85.4021 8.08858 85.5315 8.08858C85.661 8.08858 85.7775 8.02386 85.7775 7.88147L85.7516 5.5257C85.7516 5.35743 85.6868 5.29271 85.5704 5.26682C84.7031 5.05972 83.8877 4.95617 83.1369 4.95617C79.655 4.95617 77.6228 7.05307 77.6228 9.97837C77.6228 13.0202 79.3832 14.8711 82.6062 14.8711C83.5511 14.8711 84.6125 14.7288 85.7904 14.3922ZM92.4101 5.15033H91.064C90.8957 5.15033 90.831 5.27977 90.8957 5.42215L91.3099 6.36705L88.5399 13.1108C88.1516 14.0686 87.9057 14.1463 87.2326 14.2757C87.1161 14.3016 87.0385 14.4181 87.0385 14.5217C87.0385 14.6381 87.1161 14.7417 87.2844 14.7417H90.2226C90.378 14.7417 90.4427 14.6381 90.4427 14.5346C90.4427 14.4181 90.365 14.2887 90.2615 14.2757C89.5754 14.1981 89.1612 14.0816 89.1612 13.7968C89.1612 13.745 89.1742 13.7062 89.2001 13.6415L89.9249 11.8682H93.6528L94.067 12.8778C94.1964 13.2014 94.2741 13.4603 94.2741 13.6544C94.2741 14.0557 93.9634 14.2239 93.2127 14.2757C93.0703 14.2887 93.0056 14.4181 93.0056 14.5346C93.0056 14.6381 93.0573 14.7417 93.1738 14.7417H96.7852C96.9017 14.7417 96.9534 14.6381 96.9534 14.5346C96.9534 14.4181 96.8887 14.3016 96.7463 14.2757C95.9956 14.1722 96.0862 14.0686 94.4812 10.1596L92.4101 5.15033ZM91.8277 7.0919L93.4068 11.1563H90.2226L91.8277 7.0919ZM99.5373 10.9362C99.5373 12.4636 99.4985 13.0202 99.4726 13.3308C99.4208 13.978 99.2914 14.1463 98.3853 14.2757C98.243 14.3016 98.1782 14.4181 98.1782 14.5346C98.1782 14.6381 98.23 14.7417 98.3465 14.7417H102.217C104.948 14.7417 107.485 13.1367 107.485 9.8101C107.485 6.87186 105.259 5.15033 101.893 5.15033H98.4112C98.2947 5.15033 98.243 5.25388 98.243 5.35743C98.243 5.47392 98.3077 5.59042 98.4501 5.61631C99.3561 5.74574 99.4208 5.90107 99.4726 6.54826C99.4985 6.85891 99.5373 7.58377 99.5373 9.09819V10.9362ZM100.819 5.92696C100.935 5.87518 101.285 5.84929 101.479 5.84929C103.796 5.84929 106.022 7.07896 106.022 9.84893C106.022 12.5542 104.585 14.0686 102.45 14.0686C101.595 14.0686 101.052 13.8486 100.948 13.4085C100.845 12.9684 100.819 12.5024 100.819 10.9492V5.92696ZM112.097 5.88813C112.214 5.83635 112.563 5.81046 112.757 5.81046H114.414C115.243 5.81046 115.721 6.36705 115.825 7.38961C115.838 7.55788 115.967 7.63554 116.084 7.63554C116.2 7.63554 116.317 7.55788 116.317 7.4155V5.59042C116.317 5.27977 116.239 5.15033 115.929 5.15033H109.664C109.547 5.15033 109.495 5.25388 109.495 5.35743C109.495 5.47392 109.56 5.59042 109.703 5.61631C110.609 5.74574 110.673 5.90107 110.725 6.54826C110.751 6.85891 110.79 7.53199 110.79 9.04642V10.9362C110.79 12.4636 110.751 13.0202 110.725 13.3308C110.673 13.978 110.544 14.1463 109.638 14.2757C109.495 14.3016 109.431 14.4181 109.431 14.5346C109.431 14.6381 109.483 14.7417 109.599 14.7417H116.187C116.369 14.7417 116.55 14.6899 116.576 14.4699L116.886 12.3989C116.912 12.2435 116.822 12.1659 116.705 12.1659C116.615 12.1659 116.498 12.2177 116.446 12.36C116.123 13.1626 115.696 14.0557 114.207 14.0557C112.731 14.0557 112.253 13.978 112.162 13.3179C112.123 13.0072 112.097 12.3989 112.097 10.8974V10.1337C112.421 10.1078 112.77 10.0819 113.159 10.0819C114.427 10.0819 114.958 10.0949 115.087 11.0527C115.1 11.1951 115.23 11.2598 115.346 11.2598C115.45 11.2598 115.553 11.208 115.553 11.0915C115.553 10.8197 115.476 10.5608 115.476 9.82305C115.476 9.14997 115.553 8.73577 115.553 8.3604C115.553 8.2439 115.45 8.19213 115.346 8.19213C115.23 8.19213 115.113 8.25684 115.087 8.39923C114.893 9.46062 114.401 9.46062 113.12 9.46062C112.731 9.46062 112.408 9.43473 112.097 9.3959V5.88813ZM124.064 14.6899C124.115 14.8064 124.193 14.897 124.271 14.897C124.348 14.897 124.439 14.8194 124.517 14.6252L127.675 7.15662L128.206 13.059C128.27 13.8356 128.05 14.1463 127.144 14.2757C127.002 14.3016 126.937 14.4181 126.937 14.5346C126.937 14.6381 126.989 14.7417 127.105 14.7417H130.807C130.924 14.7417 130.976 14.6381 130.976 14.5346C130.976 14.4181 130.911 14.3016 130.768 14.2757C129.914 14.1463 129.694 13.8356 129.629 13.0202L129.086 6.65181C129.034 5.99168 129.254 5.61631 130.095 5.60336C130.225 5.60336 130.29 5.48687 130.29 5.37037C130.29 5.25388 130.238 5.15033 130.121 5.15033H127.869C127.701 5.15033 127.61 5.2021 127.584 5.27977L124.568 12.6189L121.436 5.3186C121.397 5.24093 121.319 5.15033 121.177 5.15033H118.964C118.86 5.15033 118.808 5.25388 118.808 5.35743C118.808 5.47392 118.873 5.57747 119.003 5.59042C119.818 5.61631 120.09 6.03051 120.025 6.6777L119.404 13.2273C119.339 13.8745 119.184 14.1463 118.278 14.2757C118.135 14.3016 118.071 14.4181 118.071 14.5346C118.071 14.6381 118.122 14.7417 118.239 14.7417H121.449C121.565 14.7417 121.617 14.6381 121.617 14.5346C121.617 14.4181 121.552 14.3016 121.41 14.2757C120.62 14.1592 120.31 13.9262 120.31 13.3697V13.2273L120.75 7.2084L124.064 14.6899ZM136.894 11.441C136.894 10.8974 136.997 10.4832 137.165 10.1984L138.822 7.28606C139.586 5.9399 139.871 5.74574 140.544 5.61631C140.66 5.59042 140.738 5.47392 140.738 5.37037C140.738 5.25388 140.66 5.15033 140.492 5.15033H137.605C137.45 5.15033 137.385 5.25388 137.385 5.35743C137.385 5.47392 137.463 5.60336 137.567 5.61631C138.188 5.68102 138.537 5.7328 138.537 5.97873C138.537 6.04345 138.499 6.13406 138.447 6.23761L136.44 10.0301L134.758 6.96246C134.551 6.58709 134.434 6.31527 134.434 6.10817C134.434 5.79752 134.706 5.66808 135.379 5.61631C135.521 5.60336 135.586 5.47392 135.586 5.35743C135.586 5.25388 135.534 5.15033 135.418 5.15033H132.053C131.936 5.15033 131.884 5.25388 131.884 5.35743C131.884 5.47392 131.949 5.60336 132.091 5.61631C132.531 5.65514 132.648 5.79752 133.399 7.13073L135.586 11.0139V11.7128C135.586 12.5801 135.534 13.1108 135.509 13.4861C135.47 14.0168 134.952 14.0945 134.136 14.2369C133.955 14.2628 133.839 14.3663 133.839 14.5346C133.839 14.6511 133.891 14.7417 134.007 14.7417H138.511C138.628 14.7417 138.68 14.6511 138.68 14.5346C138.68 14.4052 138.615 14.2757 138.473 14.2498C137.994 14.1592 137.023 14.0686 136.958 13.525C136.906 13.1108 136.894 12.373 136.894 11.441Z" fill="#EDFFFE"/>
</g>
<defs>
<filter id="filter0_ddi_306_17039" x="0.388421" y="0.283929" width="145.022" height="22.5986" filterUnits="userSpaceOnUse" color-interpolation-filters="sRGB">
<feFlood flood-opacity="0" result="BackgroundImageFix"/>
<feColorMatrix in="SourceAlpha" type="matrix" values="0 0 0 0 0 0 0 0 0 0 0 0 0 0 0 0 0 0 127 0" result="hardAlpha"/>
<feOffset/>
<feGaussianBlur stdDeviation="0.934425"/>
<feComposite in2="hardAlpha" operator="out"/>
<feColorMatrix type="matrix" values="0 0 0 0 0.14902 0 0 0 0 0.65098 0 0 0 0 0.603922 0 0 0 0.25 0"/>
<feBlend mode="normal" in2="BackgroundImageFix" result="effect1_dropShadow_306_17039"/>
<feColorMatrix in="SourceAlpha" type="matrix" values="0 0 0 0 0 0 0 0 0 0 0 0 0 0 0 0 0 0 127 0" result="hardAlpha"/>
<feOffset/>
<feGaussianBlur stdDeviation="2.33606"/>
<feComposite in2="hardAlpha" operator="out"/>
<feColorMatrix type="matrix" values="0 0 0 0 0.14902 0 0 0 0 0.65098 0 0 0 0 0.603922 0 0 0 0.15 0"/>
<feBlend mode="normal" in2="effect1_dropShadow_306_17039" result="effect2_dropShadow_306_17039"/>
<feBlend mode="normal" in="SourceGraphic" in2="effect2_dropShadow_306_17039" result="shape"/>
<feColorMatrix in="SourceAlpha" type="matrix" values="0 0 0 0 0 0 0 0 0 0 0 0 0 0 0 0 0 0 127 0" result="hardAlpha"/>
<feOffset/>
<feGaussianBlur stdDeviation="0.233606"/>
<feComposite in2="hardAlpha" operator="arithmetic" k2="-1" k3="1"/>
<feColorMatrix type="matrix" values="0 0 0 0 0.496094 0 0 0 0 1 0 0 0 0 0.952759 0 0 0 0.2 0"/>
<feBlend mode="normal" in2="shape" result="effect3_innerShadow_306_17039"/>
</filter>
</defs>
</svg>
